{
    "asset" : {
        "generator" : "Khronos glTF Blender I/O v1.2.75",
        "version" : "2.0"
    },
    "scene" : 0,
    "scenes" : [
        {
            "name" : "Scene",
            "nodes" : [
                0,
                1,
                2
            ]
        }
    ],
    "nodes" : [
        {
            "name" : "Light",
            "rotation" : [
                0.16907575726509094,
                0.7558803558349609,
                -0.27217137813568115,
                0.570947527885437
            ],
            "translation" : [
                4.076245307922363,
                5.903861999511719,
                -1.0054539442062378
            ]
        },
        {
            "name" : "Camera",
            "rotation" : [
                0.483536034822464,
                0.33687159419059753,
                -0.20870360732078552,
                0.7804827094078064
            ],
            "translation" : [
                7.358891487121582,
                4.958309173583984,
                6.925790786743164
            ]
        },
        {
            "mesh" : 0,
            "name" : "TheCake",
            "rotation" : [
                0.7071068286895752,
                0,
                0,
                0.7071067094802856
            ],
            "scale" : [
                0.009999999776482582,
                0.009999999776482582,
                0.009999999776482582
            ]
        }
    ],
    "materials" : [
        {
            "doubleSided" : true,
            "emissiveFactor" : [
                0,
                0,
                0
            ],
            "name" : "lambert1",
            "pbrMetallicRoughness" : {
                "baseColorFactor" : [
                    0.5,
                    0.5,
                    0.5,
                    1
                ],
                "metallicFactor" : 0,
                "roughnessFactor" : 0.5527864098548889
            }
        },
        {
            "doubleSided" : true,
            "emissiveFactor" : [
                0,
                0,
                0
            ],
            "name" : "CakeCherry",
            "pbrMetallicRoughness" : {
                "baseColorFactor" : [
                    0.4059999883174896,
                    0,
                    0,
                    1
                ],
                "metallicFactor" : 0.5,
                "roughnessFactor" : 0
            }
        },
        {
            "doubleSided" : true,
            "emissiveFactor" : [
                0,
                0,
                0
            ],
            "name" : "CakeBase",
            "pbrMetallicRoughness" : {
                "baseColorFactor" : [
                    0.07400000095367432,
                    0.021434098482131958,
                    0,
                    1
                ],
                "metallicFactor" : 0.5,
                "roughnessFactor" : 0
            }
        },
        {
            "doubleSided" : true,
            "emissiveFactor" : [
                0,
                0,
                0
            ],
            "name" : "CakeDark",
            "pbrMetallicRoughness" : {
                "baseColorFactor" : [
                    0.03896103799343109,
                    0.011285065673291683,
                    0,
                    1
                ],
                "metallicFactor" : 0.5,
                "roughnessFactor" : 0
            }
        },
        {
            "doubleSided" : true,
            "emissiveFactor" : [
                0,
                0,
                0
            ],
            "name" : "CakeFrosting",
            "pbrMetallicRoughness" : {
                "baseColorFactor" : [
                    1,
                    1,
                    1,
                    1
                ],
                "metallicFactor" : 0.5,
                "roughnessFactor" : 0
            }
        },
        {
            "doubleSided" : true,
            "emissiveFactor" : [
                0,
                0,
                0
            ],
            "name" : "CakeCandleRed",
            "pbrMetallicRoughness" : {
                "baseColorFactor" : [
                    1,
                    0,
                    0,
                    1
                ],
                "metallicFactor" : 0.5,
                "roughnessFactor" : 0.7487671971321106
            }
        },
        {
            "doubleSided" : true,
            "emissiveFactor" : [
                0,
                0,
                0
            ],
            "name" : "CakeCandleWhite",
            "pbrMetallicRoughness" : {
                "baseColorFactor" : [
                    1,
                    1,
                    1,
                    1
                ],
                "metallicFactor" : 0.5,
                "roughnessFactor" : 0.7487671971321106
            }
        }
    ],
    "meshes" : [
        {
            "name" : "Mesh",
            "primitives" : [
                {
                    "attributes" : {
                        "POSITION" : 0,
                        "NORMAL" : 1,
                        "TEXCOORD_0" : 2
                    },
                    "indices" : 3,
                    "material" : 0
                },
                {
                    "attributes" : {
                        "POSITION" : 4,
                        "NORMAL" : 5,
                        "TEXCOORD_0" : 6
                    },
                    "indices" : 7,
                    "material" : 1
                },
                {
                    "attributes" : {
                        "POSITION" : 8,
                        "NORMAL" : 9,
                        "TEXCOORD_0" : 10
                    },
                    "indices" : 11,
                    "material" : 2
                },
                {
                    "attributes" : {
                        "POSITION" : 12,
                        "NORMAL" : 13,
                        "TEXCOORD_0" : 14
                    },
                    "indices" : 15,
                    "material" : 3
                },
                {
                    "attributes" : {
                        "POSITION" : 16,
                        "NORMAL" : 17,
                        "TEXCOORD_0" : 18
                    },
                    "indices" : 19,
                    "material" : 4
                },
                {
                    "attributes" : {
                        "POSITION" : 20,
                        "NORMAL" : 21,
                        "TEXCOORD_0" : 22
                    },
                    "indices" : 23,
                    "material" : 5
                },
                {
                    "attributes" : {
                        "POSITION" : 24,
                        "NORMAL" : 25,
                        "TEXCOORD_0" : 26
                    },
                    "indices" : 27,
                    "material" : 6
                }
            ]
        }
    ],
    "accessors" : [
        {
            "bufferView" : 0,
            "componentType" : 5126,
            "count" : 180,
            "max" : [
                25,
                25,
                2.065138816833496
            ],
            "min" : [
                -25,
                -24.999998092651367,
                -0.28266778588294983
            ],
            "type" : "VEC3"
        },
        {
            "bufferView" : 1,
            "componentType" : 5126,
            "count" : 180,
            "type" : "VEC3"
        },
        {
            "bufferView" : 2,
            "componentType" : 5126,
            "count" : 180,
            "type" : "VEC2"
        },
        {
            "bufferView" : 3,
            "componentType" : 5123,
            "count" : 672,
            "type" : "SCALAR"
        },
        {
            "bufferView" : 4,
            "componentType" : 5126,
            "count" : 3114,
            "max" : [
                17,
                17,
                -18.542076110839844
            ],
            "min" : [
                -17,
                -17,
                -20.542076110839844
            ],
            "type" : "VEC3"
        },
        {
            "bufferView" : 5,
            "componentType" : 5126,
            "count" : 3114,
            "type" : "VEC3"
        },
        {
            "bufferView" : 6,
            "componentType" : 5126,
            "count" : 3114,
            "type" : "VEC2"
        },
        {
            "bufferView" : 7,
            "componentType" : 5123,
            "count" : 4032,
            "type" : "SCALAR"
        },
        {
            "bufferView" : 8,
            "componentType" : 5126,
            "count" : 460,
            "max" : [
                18,
                18,
                0.3443317413330078
            ],
            "min" : [
                -18,
                -17.999998092651367,
                -17.655668258666992
            ],
            "type" : "VEC3"
        },
        {
            "bufferView" : 9,
            "componentType" : 5126,
            "count" : 460,
            "type" : "VEC3"
        },
        {
            "bufferView" : 10,
            "componentType" : 5126,
            "count" : 460,
            "type" : "VEC2"
        },
        {
            "bufferView" : 11,
            "componentType" : 5123,
            "count" : 672,
            "type" : "SCALAR"
        },
        {
            "bufferView" : 12,
            "componentType" : 5126,
            "count" : 192,
            "max" : [
                18,
                18,
                -1.251753807067871
            ],
            "min" : [
                -18,
                -17.999998092651367,
                -8.269551277160645
            ],
            "type" : "VEC3"
        },
        {
            "bufferView" : 13,
            "componentType" : 5126,
            "count" : 192,
            "type" : "VEC3"
        },
        {
            "bufferView" : 14,
            "componentType" : 5126,
            "count" : 192,
            "type" : "VEC2"
        },
        {
            "bufferView" : 15,
            "componentType" : 5123,
            "count" : 192,
            "type" : "SCALAR"
        },
        {
            "bufferView" : 16,
            "componentType" : 5126,
            "count" : 373,
            "max" : [
                19.217390060424805,
                19.217390060424805,
                -8.972607612609863
            ],
            "min" : [
                -19.217390060424805,
                -19.217390060424805,
                -18.81890869140625
            ],
            "type" : "VEC3"
        },
        {
            "bufferView" : 17,
            "componentType" : 5126,
            "count" : 373,
            "type" : "VEC3"
        },
        {
            "bufferView" : 18,
            "componentType" : 5126,
            "count" : 373,
            "type" : "VEC2"
        },
        {
            "bufferView" : 19,
            "componentType" : 5123,
            "count" : 1632,
            "type" : "SCALAR"
        },
        {
            "bufferView" : 20,
            "componentType" : 5126,
            "count" : 124,
            "max" : [
                1,
                0.9999999403953552,
                -19.112003326416016
            ],
            "min" : [
                -0.9999998807907104,
                -0.9999998807907104,
                -30.112003326416016
            ],
            "type" : "VEC3"
        },
        {
            "bufferView" : 21,
            "componentType" : 5126,
            "count" : 124,
            "type" : "VEC3"
        },
        {
            "bufferView" : 22,
            "componentType" : 5126,
            "count" : 124,
            "type" : "VEC2"
        },
        {
            "bufferView" : 23,
            "componentType" : 5123,
            "count" : 216,
            "type" : "SCALAR"
        },
        {
            "bufferView" : 24,
            "componentType" : 5126,
            "count" : 124,
            "max" : [
                1,
                0.9999999403953552,
                -19.112003326416016
            ],
            "min" : [
                -0.9999998807907104,
                -0.9999998807907104,
                -30.112003326416016
            ],
            "type" : "VEC3"
        },
        {
            "bufferView" : 25,
            "componentType" : 5126,
            "count" : 124,
            "type" : "VEC3"
        },
        {
            "bufferView" : 26,
            "componentType" : 5126,
            "count" : 124,
            "type" : "VEC2"
        },
        {
            "bufferView" : 27,
            "componentType" : 5123,
            "count" : 216,
            "type" : "SCALAR"
        }
    ],
    "bufferViews" : [
        {
            "buffer" : 0,
            "byteLength" : 2160,
            "byteOffset" : 0
        },
        {
            "buffer" : 0,
            "byteLength" : 2160,
            "byteOffset" : 2160
        },
        {
            "buffer" : 0,
            "byteLength" : 1440,
            "byteOffset" : 4320
        },
        {
            "buffer" : 0,
            "byteLength" : 1344,
            "byteOffset" : 5760
        },
        {
            "buffer" : 0,
            "byteLength" : 37368,
            "byteOffset" : 7104
        },
        {
            "buffer" : 0,
            "byteLength" : 37368,
            "byteOffset" : 44472
        },
        {
            "buffer" : 0,
            "byteLength" : 24912,
            "byteOffset" : 81840
        },
        {
            "buffer" : 0,
            "byteLength" : 8064,
            "byteOffset" : 106752
        },
        {
            "buffer" : 0,
            "byteLength" : 5520,
            "byteOffset" : 114816
        },
        {
            "buffer" : 0,
            "byteLength" : 5520,
            "byteOffset" : 120336
        },
        {
            "buffer" : 0,
            "byteLength" : 3680,
            "byteOffset" : 125856
        },
        {
            "buffer" : 0,
            "byteLength" : 1344,
            "byteOffset" : 129536
        },
        {
            "buffer" : 0,
            "byteLength" : 2304,
            "byteOffset" : 130880
        },
        {
            "buffer" : 0,
            "byteLength" : 2304,
            "byteOffset" : 133184
        },
        {
            "buffer" : 0,
            "byteLength" : 1536,
            "byteOffset" : 135488
        },
        {
            "buffer" : 0,
            "byteLength" : 384,
            "byteOffset" : 137024
        },
        {
            "buffer" : 0,
            "byteLength" : 4476,
            "byteOffset" : 137408
        },
        {
            "buffer" : 0,
            "byteLength" : 4476,
            "byteOffset" : 141884
        },
        {
            "buffer" : 0,
            "byteLength" : 2984,
            "byteOffset" : 146360
        },
        {
            "buffer" : 0,
            "byteLength" : 3264,
            "byteOffset" : 149344
        },
        {
            "buffer" : 0,
            "byteLength" : 1488,
            "byteOffset" : 152608
        },
        {
            "buffer" : 0,
            "byteLength" : 1488,
            "byteOffset" : 154096
        },
        {
            "buffer" : 0,
            "byteLength" : 992,
            "byteOffset" : 155584
        },
        {
            "buffer" : 0,
            "byteLength" : 432,
            "byteOffset" : 156576
        },
        {
            "buffer" : 0,
            "byteLength" : 1488,
            "byteOffset" : 157008
        },
        {
            "buffer" : 0,
            "byteLength" : 1488,
            "byteOffset" : 158496
        },
        {
            "buffer" : 0,
            "byteLength" : 992,
            "byteOffset" : 159984
        },
        {
            "buffer" : 0,
            "byteLength" : 432,
            "byteOffset" : 160976
        }
    ],
    "buffers" : [
        {
            "byteLength" : 161408,
            "uri" : "data:application/octet-stream;base64,"
        }
    ]
}
